<?xml version="1.0" encoding="UTF-8" standalone="no"?>
<!-- Created with Inkscape (http://www.inkscape.org/) -->
<svg xmlns:dc="http://purl.org/dc/elements/1.1/" xmlns:cc="http://creativecommons.org/ns#" xmlns:rdf="http://www.w3.org/1999/02/22-rdf-syntax-ns#" xmlns:svg="http://www.w3.org/2000/svg" xmlns="http://www.w3.org/2000/svg" xmlns:sodipodi="http://sodipodi.sourceforge.net/DTD/sodipodi-0.dtd" xmlns:inkscape="http://www.inkscape.org/namespaces/inkscape" width="117" height="171" id="svg18633" version="1.1" inkscape:version="0.47 r22583" sodipodi:docname="Nouveau document 24">
  <defs id="defs18635">
    <inkscape:perspective sodipodi:type="inkscape:persp3d" inkscape:vp_x="0 : 526.18109 : 1" inkscape:vp_y="0 : 1000 : 0" inkscape:vp_z="744.09448 : 526.18109 : 1" inkscape:persp3d-origin="372.04724 : 350.78739 : 1" id="perspective18641"/>
    <inkscape:perspective id="perspective18500" inkscape:persp3d-origin="0.5 : 0.33333333 : 1" inkscape:vp_z="1 : 0.5 : 1" inkscape:vp_y="0 : 1000 : 0" inkscape:vp_x="0 : 0.5 : 1" sodipodi:type="inkscape:persp3d"/>
  </defs>
  <sodipodi:namedview id="base" pagecolor="#ffffff" bordercolor="#666666" borderopacity="1.0" inkscape:pageopacity="0.0" inkscape:pageshadow="2" inkscape:zoom="4.3168134" inkscape:cx="58.478425" inkscape:cy="85.363883" inkscape:document-units="px" inkscape:current-layer="layer1" showgrid="false" inkscape:window-width="1920" inkscape:window-height="1005" inkscape:window-x="0" inkscape:window-y="24" inkscape:window-maximized="1"/>
  <metadata id="metadata18638">
    <rdf:RDF>
      <cc:Work rdf:about="">
        <dc:format>image/svg+xml</dc:format>
        <dc:type rdf:resource="http://purl.org/dc/dcmitype/StillImage"/>
        <dc:title/>
      </cc:Work>
    </rdf:RDF>
  </metadata>
  <g inkscape:label="Calque 1" inkscape:groupmode="layer" id="layer1" transform="translate(2124.1927,598.98822)">
    <g id="g9250" transform="matrix(1.25,0,0,-1.25,-2049.7053,-575.9521)">
      <path d="m 0,0 -54.637,0 0,-103.547 54.637,0 L 0,0 z" style="fill:none;stroke:#2448a0;stroke-width:0.92900002;stroke-linecap:butt;stroke-linejoin:miter;stroke-miterlimit:4;stroke-opacity:1;stroke-dasharray:none" id="path9252"/>
    </g>
    <g id="g9262" transform="matrix(1.25,0,0,-1.25,-2087.819,-508.87983)">
      <path d="M 0,0 C 15.957,0 28.894,12.936 28.894,28.894 28.894,44.852 15.957,57.787 0,57.787 -15.957,57.787 -28.894,44.852 -28.894,28.894 -28.894,12.936 -15.957,0 0,0" style="fill:#cce3f6;fill-opacity:1;fill-rule:nonzero;stroke:none" id="path9264"/>
    </g>
    <g id="g9266" transform="matrix(1.25,0,0,-1.25,-2110.8428,-564.53786)">
      <path d="m 0,0 c 4.024,5.727 10.835,9.441 20.275,9.286 9.442,-0.154 22.443,-18.572 22.443,-18.572 1.084,-4.645 3.561,-21.36 -12.691,-29.409 -7.585,-2.167 -8.359,-4.488 -23.372,1.238 C -8.357,-31.73 0,0 0,0" style="fill:#82b0e2;fill-opacity:1;fill-rule:nonzero;stroke:none" id="path9268"/>
    </g>
    <g id="g9270" transform="matrix(1.25,0,0,-1.25,-2054.1551,-557.76536)">
      <path d="m 0,0 c -0.123,-2.078 -0.898,-4.053 -1.47,-5.958 -0.676,0.382 -0.684,1.3 -1.281,1.622 -0.33,0.176 -0.352,-0.482 -0.608,-0.644 -0.692,-0.435 -1.465,-0.8 -1.85,-1.375 -0.831,-1.246 1.519,-3.048 0.443,-3.879 -0.57,-0.441 -1.142,0.164 -1.606,0.483 -1.147,0.789 -1.958,1.841 -3.188,2.286 -0.921,0.333 -2.105,-0.107 -3.01,0.357 -0.427,0.219 -0.908,0.463 -1.343,0.748 -0.608,0.399 -1.345,-0.334 -2.101,-0.188 -0.865,0.167 -1.46,0.778 -2.173,1.208 0.067,-1.201 0.375,-2.335 0.982,-3.374 1.4,-2.403 2.917,-4.56 4.038,-7.035 0.443,-0.98 0.345,-2.222 0.833,-3.144 0.452,-0.852 0.666,-1.736 0.802,-2.698 l -0.308,0 c 0.049,-0.45 -0.366,-0.686 -0.466,-1.084 -0.299,-1.203 0.058,-2.395 -0.309,-3.559 -0.835,0.305 -1.602,0.152 -2.309,0.958 -0.535,0.608 -1.238,-0.313 -2.051,-0.562 -0.838,-0.258 -1.681,0.857 -2.604,0.842 -0.549,-0.008 -0.787,0.76 -1.239,1.238 -0.964,1.019 -0.322,3.207 -1.974,3.689 -0.113,0.034 0.079,0.752 -0.097,1.078 -0.407,0.752 -1.324,1.037 -1.876,1.648 -0.831,0.921 -1.612,1.76 -2.593,2.511 -0.842,0.647 -1.83,0.84 -2.742,1.452 -0.897,0.604 -1.663,1.368 -1.356,2.457 0.11,0.389 0.246,0.67 0.322,1.085 0.218,1.177 1.273,1.816 2.063,2.525 0.797,0.713 2.194,0.603 3.066,1.3 0.656,0.527 1.291,1.161 2.107,1.397 0.958,0.28 1.952,0.353 2.897,0.619 2.04,0.578 4.038,1.498 5.443,2.985 1.406,1.487 -0.233,3.721 -1.894,4.575 -1.184,0.61 -2.425,1.125 -3.822,0.815 -0.863,-0.189 -1.742,-0.928 -1.465,-1.794 0.416,-1.293 2.092,-1.209 3.283,-1.536 1.004,-0.276 2.711,-0.884 2.255,-2.174 -0.106,-0.302 -0.315,-0.776 -0.69,-0.932 -1.23,-0.508 -2.504,-1.423 -3.817,-0.732 -0.425,0.224 -0.396,0.794 -0.348,1.321 -0.104,0 -0.264,-0.027 -0.28,0.012 -0.46,1.042 -1.744,1.507 -2.595,0.832 -0.613,-0.488 -1.136,-1.123 -1.547,-1.814 -0.509,-0.862 -0.331,-2.06 -1.208,-2.662 -0.774,-0.529 -1.407,0.492 -2.251,0.622 -0.858,0.133 -1.382,1.053 -1.437,1.78 -0.029,0.393 0.491,0.866 0.622,1.391 0.196,0.785 -0.747,1.239 -1.321,1.487 -0.801,0.346 -0.252,1.457 -0.085,2.195 0.164,0.719 1.518,0.187 1.937,0.734 0.868,1.132 -0.399,3.064 0.831,3.768 1.278,0.731 3.405,0.124 4.299,1.616 0.307,0.515 0.205,1.412 -0.409,1.724 -0.424,0.215 -1.087,-0.137 -1.422,-0.362 -0.698,-0.469 -1.308,-1.709 -2.223,-1.34 -0.5,0.201 -0.647,0.924 -0.456,1.456 0.587,1.633 2.266,2.334 3.304,3.772 0.571,0.793 0.249,1.893 -0.712,2.278 0.589,0.212 1.139,0.53 1.723,0.705 1.247,0.372 2.455,0.576 3.703,0.968 0.287,0.09 0.611,0.03 0.92,0.03 l 0.959,0.044 C -10.576,15.416 -3.194,8.717 0.101,0.01 L 0,0 z" style="fill:#fbcbb0;fill-opacity:1;fill-rule:nonzero;stroke:none" id="path9272"/>
    </g>
    <g id="g9274" transform="matrix(1.25,0,0,-1.25,-2121.7742,-533.09797)">
      <path d="m 0,0 c 0.287,0.088 0.539,-0.093 0.752,-0.198 0.662,-0.323 1.157,-0.811 1.817,-1.158 0.639,-0.337 1.483,-0.782 1.607,-1.74 0.155,-1.181 0.744,-2.233 1.59,-3.055 1.796,-1.743 3.137,-3.795 4.914,-5.148 1.037,-0.79 2.109,-1.404 3.183,-2.203 1.489,-1.108 3.371,-1.135 5.18,-1.307 1.798,-0.171 3.473,0.457 5.261,0.696 1.705,0.228 3.341,-0.161 4.962,-0.707 0.968,-0.326 1.178,0.553 1.444,1.333 0.063,0.186 0.54,0.079 0.687,0.343 0.068,0.122 0.057,0.389 0.007,0.405 -2.157,0.756 -3.721,2.494 -6.02,3.298 -0.803,0.28 -1.767,-0.096 -2.439,0.507 -0.749,0.671 -1.396,1.337 -2.223,1.944 -0.868,0.638 -1.817,0.927 -2.474,1.872 -0.218,0.316 -0.756,0.42 -0.789,0.516 C 16.65,-2.177 16.192,0.275 14.622,2.416 12.994,4.636 10.294,4.705 7.713,4.149 6.858,3.964 6.141,4.897 5.949,5.742 5.679,6.929 5.024,8.584 6.127,9.088 6.824,9.407 7.755,8.306 8.839,8.949 c 1.058,0.625 1.836,1.807 1.466,2.948 -0.173,0.53 -1.031,0.201 -1.238,0.54 -0.611,1.001 0.836,1.775 0.621,2.874 -0.081,0.41 -0.615,0.762 -0.611,1.094 0.009,0.85 1.296,0.322 1.49,1.113 0.135,0.543 -0.971,1.107 -0.309,1.788 0.1,0.104 0.332,0.299 0.576,0.197 0.154,1.077 1.342,1.382 1.709,2.319 0.487,1.241 -0.057,2.445 -0.86,3.466 -0.154,0.197 -0.265,0.557 -0.101,0.95 1.497,3.556 -2.862,0.723 -2.915,2.397 C 6.704,29.04 5.317,26.87 3.715,26.003 L 3.509,26.116 C 0.208,21.419 -1.73,15.696 -1.73,9.519 c 0,-3.357 0.573,-6.581 1.626,-9.579 L 0,0 z" style="fill:#fbcbb0;fill-opacity:1;fill-rule:nonzero;stroke:none" id="path9276"/>
    </g>
    <g id="g9278" transform="matrix(1.25,0,0,-1.25,-2123.6553,-540.01272)">
      <path d="M 0,0 C 1.354,-0.241 2.418,-1.234 3.023,-2.36 3.541,-3.327 3.178,-4.474 2.518,-5.446 2.393,-5.631 2.391,-5.982 2.519,-6.161 c 0.82,-1.15 1.903,-1.893 2.79,-2.911 0.951,-1.096 2.081,-1.803 3.277,-2.65 0.726,-0.511 1.069,-1.443 1.669,-2.174 0.174,-0.211 0.408,-0.431 0.734,-0.5 0.807,-0.17 1.621,0.492 2.275,-0.056 0.388,-0.325 0.761,-0.914 1.128,-0.907 1.235,0.026 2.298,-0.579 3.55,-0.362 1.45,0.252 2.822,0.426 4.233,0.894 0.856,0.285 1.756,-1.137 2.505,-0.781 1.574,0.747 -0.343,2.808 -1.371,3.61 -1.375,1.075 -3.786,0.72 -4.891,1.937 -0.333,0.367 -0.83,0.296 -1.225,0.49 -0.597,0.295 -1.126,0.723 -1.489,1.26 -0.619,0.912 -1.196,1.764 -1.576,2.755 -0.304,0.791 -0.692,1.559 -0.696,2.46 -0.003,0.42 -0.253,0.835 -0.61,1.043 -1.272,0.745 -2.294,1.725 -3.69,2.209 C 8.422,0.4 7.716,0.629 6.974,0.432 6.948,0.424 6.965,0.258 6.965,0.155 l 0,0.309 C 7.066,0.045 6.519,-0.189 6.655,-0.619 6.292,-0.564 6.411,-1.049 6.19,-1.055 5.783,-1.063 5.377,-1.239 4.938,-0.951 4.664,-0.771 4.549,-0.508 4.367,-0.283 4.105,0.045 4.501,0.343 4.685,0.588 4.901,0.877 5.27,1.087 5.366,1.408 5.641,2.306 4.893,3.618 5.53,3.982 6.244,4.392 7.43,3.469 8.513,3.87 8.394,4.187 8.752,4.295 8.778,4.495 8.973,6.01 8.166,7.489 8.602,8.951 c 0.13,0.437 0.551,0.848 0.785,1.293 0.164,0.312 -0.191,0.734 -0.177,1.051 0.037,0.817 0.777,1.415 1.369,1.957 0.493,0.452 1.17,0.707 1.803,0.988 -0.321,-0.014 -0.647,0.127 -0.9,0.228 -0.394,0.157 -0.877,0.473 -1.056,0.88 -0.445,1.006 -0.261,2.226 -0.77,3.174 C 9.574,18.676 9.027,18.628 8.673,18.546 7.675,18.312 6.772,18.047 5.904,17.456 5.502,17.182 5.234,16.798 4.906,16.45 4.616,16.141 4.25,15.854 3.855,15.663 3.428,15.458 2.426,15.638 2.398,15.71 L 2.385,15.896 C 0.639,12.175 -0.336,8.02 -0.336,3.638 c 0,-1.245 0.078,-2.471 0.23,-3.674 L 0,0 z" style="fill:#eb4f1a;fill-opacity:1;fill-rule:nonzero;stroke:none" id="path9280"/>
    </g>
    <g id="g9282" transform="matrix(1.25,0,0,-1.25,-2104.7454,-573.16335)">
      <path d="m 0,0 c 0.739,-0.188 0.974,-0.941 1.566,-1.204 1.38,-0.609 2.95,-0.584 4.313,-1.285 -0.313,0.033 -0.504,-0.236 -0.774,-0.31 1.296,-0.075 2.465,0.142 3.7,0.514 0.842,0.252 1.547,0.806 2.337,1.188 C 9.975,-0.679 9.035,0.159 9.395,1.547 9.459,1.792 9.184,2.021 8.962,2.126 8.399,2.392 7.867,2.36 7.083,2.107 5.88,1.722 4.503,2.429 3.27,1.943 2.069,1.47 0.905,0.896 -0.158,0.142 -0.105,0.09 -0.063,0.016 0,0" style="fill:#eb4f1a;fill-opacity:1;fill-rule:nonzero;stroke:none" id="path9284"/>
    </g>
    <g id="g9286" transform="matrix(1.25,0,0,-1.25,-2085.0145,-577.2106)">
      <path d="M 0,0 C 0.746,-0.26 -0.072,-1.593 0.419,-2.352 0.614,-2.654 0.471,-3.07 0.288,-3.394 -0.064,-4.015 -0.843,-4.303 -0.928,-5.108 -0.264,-5.175 0.021,-5.892 0,-6.5 0.681,-5.521 2.116,-4.467 2.969,-5.248 4.19,-6.362 2.174,-7.226 1.422,-8.095 0.871,-8.73 -0.341,-8.147 -1.231,-8.528 c -0.242,-0.104 -0.191,-0.43 -0.25,-0.624 -0.295,-0.966 0.313,-1.988 -0.265,-2.893 -0.191,-0.299 -0.443,-0.605 -0.751,-0.762 -0.456,-0.232 -1.109,0.257 -1.484,-0.227 -0.313,-0.404 0.238,-0.744 0.439,-0.772 0.731,-0.1 1.285,-0.603 1.994,-0.589 -0.488,-0.753 -1.959,-0.803 -1.711,-1.66 0.405,-1.41 2.241,-2.099 3.497,-1.452 0.62,0.319 0.442,1.42 0.722,2.172 0.134,0.361 0.612,0.186 0.942,0.409 0.415,0.28 0.686,-0.377 1.058,-0.49 0.624,-0.188 1.384,-0.224 1.959,0.019 0.13,0.054 0.407,0.064 0.482,0.235 0.105,0.241 -0.168,0.343 -0.31,0.43 -0.818,0.505 -2.225,0.553 -2.304,1.575 0.569,-0.092 1.269,-0.487 1.618,-0.205 0.341,0.274 0.455,1.03 0.084,1.598 0.948,-0.319 1.25,-1.457 2.052,-1.747 0.573,-0.208 1.209,-0.403 1.597,-0.794 0.445,-0.448 0.66,-1.189 0.284,-1.73 -0.307,-0.44 -1.032,-0.138 -1.607,-0.246 -0.181,-0.035 -0.195,-0.31 -0.334,-0.407 -0.76,-0.52 -1.852,-0.059 -2.342,-0.596 -1.422,-1.562 -3.337,-1.681 -5.038,-2.583 -0.569,-0.3 -1.106,-0.79 -1.358,-1.366 -0.259,-0.592 -0.462,-1.294 -0.067,-1.985 0.294,-0.514 0.533,-1.018 0.858,-1.491 1.303,-1.898 3.293,-2.75 5.335,-3.461 0.554,-1.649 1.398,-3.16 2.016,-4.796 0.215,-0.57 0.888,-0.604 1.251,-0.648 1.593,-0.196 3.242,-0.321 4.753,0.255 0.806,0.307 1.487,0.919 2.351,1.165 -0.04,-1.267 -0.567,-2.942 1.075,-3.436 0.372,-0.113 0.194,-0.546 0.106,-0.713 -0.301,-0.58 -0.58,-1.154 -0.845,-1.744 -0.079,-0.174 -0.079,-0.424 0,-0.597 0.229,-0.502 0.555,-1.048 1.074,-1.178 0.427,-0.106 0.733,-0.358 1.088,-0.434 0.264,-0.059 0.624,0.527 0.518,0.795 -0.364,0.921 -0.746,1.87 -0.47,2.797 0.15,0.5 0.797,0.686 1.141,1.126 0.195,0.247 0.274,0.581 0.171,0.904 -0.147,0.456 -0.734,0.541 -0.878,0.946 -0.229,0.646 -0.121,1.437 -0.563,1.946 -0.734,0.844 -1.852,-0.118 -2.69,0.16 -1.443,0.481 -1.42,2.22 -1.355,3.61 0.017,0.343 -0.421,0.77 -0.438,1.086 -0.155,2.606 -2.628,3.416 -4.077,5.142 -0.711,0.847 0.601,0.879 1.19,1.044 -0.103,0.154 -0.207,0.308 -0.309,0.464 1.741,0.147 3.2,1.142 4.952,1.399 0.806,0.118 1.294,-0.493 1.792,-1.002 0.172,-0.174 0.8,-0.335 1.113,-0.174 1.07,0.558 1.882,1.431 2.867,2.195 1.002,0.778 2.36,0.889 3.171,1.942 0.104,0.135 0.093,0.414 0.005,0.577 -0.929,1.72 -2.04,3.233 -2.883,4.981 -0.083,0.17 0.04,0.438 -0.062,0.583 -1.864,2.616 -3.765,4.845 -6.519,6.269 -2.058,1.063 -4.328,1.563 -6.603,1.958 C 6.862,-1.6 6.913,-1.651 6.965,-1.703 5.479,-0.216 2.741,0.366 0.313,0.122 0.25,0.116 0.152,-0.053 0,0" style="fill:#eb4f1a;fill-opacity:1;fill-rule:nonzero;stroke:none" id="path9288"/>
    </g>
    <g id="g9290" transform="matrix(1.25,0,0,-1.25,-2101.7492,-576.3396)">
      <path d="m 0,0 c -2.941,-1.393 -7.584,-3.561 -7.584,-5.417 0,-1.858 1.237,-3.406 6.19,-2.167 4.954,1.238 8.669,2.941 10.371,4.023 1.702,1.084 3.869,4.025 1.857,4.954 C 8.822,2.322 6.345,2.012 3.87,1.238 1.393,0.464 0,0 0,0 z" style="fill:none;stroke:#2448a0;stroke-width:0.31;stroke-linecap:butt;stroke-linejoin:miter;stroke-miterlimit:4;stroke-opacity:1;stroke-dasharray:none" id="path9292"/>
    </g>
    <g id="g9294" transform="matrix(1.25,0,0,-1.25,-2110.8428,-567.63349)">
      <path d="M 0,0 C -3.25,-4.644 -5.882,-8.822 -7.275,-19.657 -8.668,-30.492 0.309,-41.171 16.562,-46.898" style="fill:none;stroke:#2448a0;stroke-width:0.31;stroke-linecap:butt;stroke-linejoin:miter;stroke-miterlimit:4;stroke-opacity:1;stroke-dasharray:none" id="path9296"/>
    </g>
    <g id="g9298" transform="matrix(1.25,0,0,-1.25,-2111.2292,-570.3411)">
      <path d="M 0,0 C -2.013,-1.392 -2.167,-0.773 -4.489,-3.095" style="fill:none;stroke:#2448a0;stroke-width:0.31;stroke-linecap:butt;stroke-linejoin:miter;stroke-miterlimit:4;stroke-opacity:1;stroke-dasharray:none" id="path9300"/>
    </g>
    <g id="g9302" transform="matrix(1.25,0,0,-1.25,-2105.6194,-574.40535)">
      <path d="M 0,0 -2.477,-0.156" style="fill:none;stroke:#2448a0;stroke-width:0.31;stroke-linecap:butt;stroke-linejoin:miter;stroke-miterlimit:4;stroke-opacity:1;stroke-dasharray:none" id="path9304"/>
    </g>
    <g id="g9306" transform="matrix(1.25,0,0,-1.25,-2099.0417,-577.30699)">
      <path d="M 0,0 C 0,0 0.154,1.238 1.548,2.012" style="fill:none;stroke:#2448a0;stroke-width:0.31;stroke-linecap:butt;stroke-linejoin:miter;stroke-miterlimit:4;stroke-opacity:1;stroke-dasharray:none" id="path9308"/>
    </g>
    <g id="g9310" transform="matrix(1.25,0,0,-1.25,-2088.206,-578.08036)">
      <path d="M 0,0 C 2.476,1.084 4.797,1.703 7.584,1.548" style="fill:none;stroke:#2448a0;stroke-width:0.31;stroke-linecap:butt;stroke-linejoin:miter;stroke-miterlimit:4;stroke-opacity:1;stroke-dasharray:none" id="path9312"/>
    </g>
    <g id="g9314" transform="matrix(1.25,0,0,-1.25,-2087.2387,-575.75849)">
      <path d="m 0,0 c 6.655,-0.928 16.716,-4.334 23.835,-15.322 1.394,-3.561 2.787,-8.514 1.084,-16.407 -1.702,-7.894 -4.024,-12.229 -4.024,-12.229" style="fill:none;stroke:#2448a0;stroke-width:0.31;stroke-linecap:butt;stroke-linejoin:miter;stroke-miterlimit:4;stroke-opacity:1;stroke-dasharray:none" id="path9316"/>
    </g>
    <g id="g9318" transform="matrix(1.25,0,0,-1.25,-2089.948,-571.6966)">
      <path d="m 0,0 c 6.191,-2.631 14.24,-8.048 17.8,-15.943 3.56,-7.893 4.797,-13.466 0.619,-28.788" style="fill:none;stroke:#2448a0;stroke-width:0.31;stroke-linecap:butt;stroke-linejoin:miter;stroke-miterlimit:4;stroke-opacity:1;stroke-dasharray:none" id="path9320"/>
    </g>
    <g id="g9322" transform="matrix(1.25,0,0,-1.25,-2094.398,-569.56835)">
      <path d="M 0,0 C 7.429,-7.894 19.813,-29.099 18.729,-45.196" style="fill:none;stroke:#2448a0;stroke-width:0.31;stroke-linecap:butt;stroke-linejoin:miter;stroke-miterlimit:4;stroke-opacity:1;stroke-dasharray:none" id="path9324"/>
    </g>
    <g id="g9326" transform="matrix(1.25,0,0,-1.25,-2101.5563,-567.24536)">
      <path d="M 0,0 C 0.31,-8.822 0.774,-26.157 19.192,-45.659" style="fill:none;stroke:#2448a0;stroke-width:0.31;stroke-linecap:butt;stroke-linejoin:miter;stroke-miterlimit:4;stroke-opacity:1;stroke-dasharray:none" id="path9328"/>
    </g>
    <g id="g9330" transform="matrix(1.25,0,0,-1.25,-2107.3595,-566.08447)">
      <path d="M 0,0 C -3.096,-10.679 -8.823,-31.884 18.418,-45.659" style="fill:none;stroke:#2448a0;stroke-width:0.31;stroke-linecap:butt;stroke-linejoin:miter;stroke-miterlimit:4;stroke-opacity:1;stroke-dasharray:none" id="path9332"/>
    </g>
    <g id="g9334" transform="matrix(1.25,0,0,-1.25,-2123.9989,-546.35184)">
      <path d="m 0,0 c 1.857,-2.321 4.488,-3.869 7.739,-4.489 3.251,-0.619 11.762,-2.322 21.823,2.631 10.062,4.953 17.336,8.822 19.967,21.049" style="fill:none;stroke:#2448a0;stroke-width:0.31;stroke-linecap:butt;stroke-linejoin:miter;stroke-miterlimit:4;stroke-opacity:1;stroke-dasharray:none" id="path9336"/>
    </g>
    <g id="g9338" transform="matrix(1.25,0,0,-1.25,-2104.8454,-513.0736)">
      <path d="M 0,0 C 5.417,-1.547 13.312,-1.547 21.979,1.238 30.646,4.024 36.373,8.977 41.326,17.18" style="fill:none;stroke:#2448a0;stroke-width:0.31;stroke-linecap:butt;stroke-linejoin:miter;stroke-miterlimit:4;stroke-opacity:1;stroke-dasharray:none" id="path9340"/>
    </g>
    <g id="g9342" transform="matrix(1.25,0,0,-1.25,-2120.9038,-559.50672)">
      <path d="m 0,0 c 3.096,-3.095 5.572,-3.405 10.835,-2.786 5.263,0.619 16.561,3.716 22.443,10.061 5.882,6.346 3.56,8.049 3.56,8.049" style="fill:none;stroke:#2448a0;stroke-width:0.31;stroke-linecap:butt;stroke-linejoin:miter;stroke-miterlimit:4;stroke-opacity:1;stroke-dasharray:none" id="path9344"/>
    </g>
    <g id="g9346" transform="matrix(1.25,0,0,-1.25,-2054.1551,-557.76536)">
      <path d="m 0,0 c -0.31,-5.262 -4.489,-15.322 -11.144,-19.811 -6.655,-4.489 -10.99,-7.12 -23.682,-8.358 -12.691,-1.238 -18.263,6.81 -19.346,9.286" style="fill:none;stroke:#2448a0;stroke-width:0.31;stroke-linecap:butt;stroke-linejoin:miter;stroke-miterlimit:4;stroke-opacity:1;stroke-dasharray:none" id="path9348"/>
    </g>
    <g id="g9350" transform="matrix(1.25,0,0,-1.25,-2087.819,-508.87983)">
      <path d="M 0,0 C 15.957,0 28.894,12.936 28.894,28.894 28.894,44.852 15.957,57.787 0,57.787 -15.957,57.787 -28.894,44.852 -28.894,28.894 -28.894,12.936 -15.957,0 0,0 z" style="fill:none;stroke:#2448a0;stroke-width:0.31;stroke-linecap:butt;stroke-linejoin:miter;stroke-miterlimit:4;stroke-opacity:1;stroke-dasharray:none" id="path9352"/>
    </g>
    <g id="g9354" transform="matrix(1.25,0,0,-1.25,-2029.583,-493.14621)">
      <path d="M 0,0 C -4.025,4.334 -10.526,9.131 -16.407,9.287 -22.29,9.441 -26.469,9.131 -33.123,3.56 c -6.656,-5.573 -10.062,-10.835 -9.752,-12.537 0.31,-1.703 0.619,-1.858 1.857,0.31 1.239,2.166 8.823,13.465 15.323,15.013 6.502,1.548 9.443,0.619 12.847,-0.619 3.406,-1.239 8.203,-5.108 9.906,-7.275 1.703,-2.167 5.882,-9.287 5.882,-9.287 L 8.512,-8.667 0,0 z" style="fill:#b3d1ef;fill-opacity:1;fill-rule:nonzero;stroke:none" id="path9356"/>
    </g>
    <g id="g9358" transform="matrix(1.25,0,0,-1.25,-2063.8287,-588.52835)">
      <path d="m 0,0 c -1.703,2.631 -2.012,3.56 -1.083,3.87 0.928,0.309 2.94,-1.393 3.405,-3.251 0.464,-1.857 1.701,-5.107 -1.084,-14.395 -2.786,-9.286 -6.501,-19.502 -9.441,-23.061 -0.775,-0.773 -2.477,-1.084 -0.775,1.393 1.704,2.476 7.121,13.776 9.442,23.836 1.238,4.643 1.393,6.191 0.619,8.358 C 0.31,-1.084 0,0 0,0" style="fill:#b3d1ef;fill-opacity:1;fill-rule:nonzero;stroke:none" id="path9360"/>
    </g>
    <g id="g9362" transform="matrix(1.25,0,0,-1.25,-2050.1934,-591.63197)">
      <path d="M 0,0 C 0.808,4.173 1.13,5.719 2.985,5.55 4.842,5.379 4.513,2.906 3.876,0.744 3.24,-1.419 0.681,-11.769 2.594,-24.167 c 1.913,-12.398 3.091,-19.991 11.595,-40.491 2.743,-5.439 9.149,-17.254 20.177,-31.891 -2.011,0.17 -7.876,2.23 -9.563,4.1 -1.689,1.872 -17.82,36.362 -17.82,36.362 L 1.572,-35.767 -0.486,-22.285 0,0 z" style="fill:#b3d1ef;fill-opacity:1;fill-rule:nonzero;stroke:none" id="path9364"/>
    </g>
    <g id="g9366" transform="matrix(1.25,0,0,-1.25,-2107.5542,-466.44761)">
      <path d="m 0,0 c 0,0 5.727,10.679 8.667,13.774 2.942,3.096 11,11.848 21.98,13.312 C 39.933,28.324 51.542,20.12 57.268,15.477 63.74,10.23 66.555,5.417 67.948,4.023 69.342,2.63 71.043,3.713 70.889,5.261 70.734,6.809 67.02,11.608 65.007,14.239 55.875,24.299 43.184,30.8 32.039,29.252 20.895,27.705 6.19,17.953 -3.095,1.547 -1.833,1.989 -0.391,1.492 0,0" style="fill:#254aa5;fill-opacity:1;fill-rule:nonzero;stroke:none" id="path9368"/>
    </g>
    <g id="g9370" transform="matrix(1.25,0,0,-1.25,-2048.4319,-594.13372)">
      <path d="m 0,0 c -2.018,-0.758 -2.803,-2.145 -3.31,-7.558 -0.507,-5.413 -1.72,-21.501 3.716,-38.571 5.436,-17.069 10.75,-29.96 18.078,-42.864 7.326,-12.905 7.953,-11.983 12.278,-13.101 -4.299,4.524 -14.384,20.857 -18.937,32.192 -4.553,11.335 -12.287,31.363 -12.328,45.45 C -0.546,-10.367 0.25,-7.586 1.213,-3.26 2.176,1.065 0,0 0,0" style="fill:#254aa5;fill-opacity:1;fill-rule:nonzero;stroke:none" id="path9372"/>
    </g>
    <g id="g9374" transform="matrix(1.25,0,0,-1.25,-2062.6689,-592.01099)">
      <path d="M 0,0 C -2.322,4.488 -1.083,4.334 -0.309,5.107 0.465,5.881 3.096,4.952 3.87,1.703 4.644,-1.548 6.656,-8.513 4.179,-21.05 1.704,-33.587 -9.75,-55.412 -15.013,-64.234 c -5.263,-8.822 -6.191,-11.454 -9.442,-10.988 -1.083,1.082 -0.309,1.392 0.466,2.476 0.774,1.083 13.001,18.728 20.12,35.289 7.12,16.562 7.274,23.991 5.882,29.563 C 0.62,-2.322 0,0 0,0" style="fill:#254aa5;fill-opacity:1;fill-rule:nonzero;stroke:none" id="path9376"/>
    </g>
    <path d="m -2108.2313,-461.31947 -4.5462,0 0,11.705 4.5462,0 0,-11.705 z" style="fill:#2448a0;fill-opacity:1;fill-rule:nonzero;stroke:none" id="path9378"/>
    <g id="g9380" transform="matrix(1.25,0,0,-1.25,-2110.504,-462.33133)">
      <path d="m 0,0 c 1.027,0 1.86,0.833 1.86,1.861 0,1.027 -0.833,1.86 -1.86,1.86 -1.028,0 -1.861,-0.833 -1.861,-1.86 C -1.861,0.833 -1.028,0 0,0" style="fill:#2448a0;fill-opacity:1;fill-rule:nonzero;stroke:none" id="path9382"/>
    </g>
    <g id="g9384" transform="matrix(1.25,0,0,-1.25,-2068.9079,-458.27136)">
      <path d="m 0,0 c -2.437,2.206 -5.083,2.67 -8.86,2.67 -4.349,0 -8.088,-1.547 -8.088,-4.566 0,-1.779 1.316,-5.146 8.629,-5.146 7.831,0 8.861,4.451 8.861,5.107 l -8.861,0 0,-1.895 3.946,0 c -0.85,-0.851 -1.856,-1.47 -3.985,-1.431 -2.127,0.038 -4.721,1.082 -4.721,3.095 0,2.012 2.167,3.134 4.18,3.134 2.607,0 5.108,-0.968 5.688,-2.051 L 0,0 z" style="fill:#2448a0;fill-opacity:1;fill-rule:nonzero;stroke:none" id="path9386"/>
    </g>
    <g id="g9388" transform="matrix(1.25,0,0,-1.25,-2097.4938,-459.04646)">
      <path d="m 0,0 -2.167,0 0,-2.631 2.245,0 c 1.161,0 1.47,0.85 1.47,1.507 C 1.548,-0.464 1.161,0 0,0 m 4.798,-1.238 c 0,-1.317 -1.044,-2.903 -3.094,-2.903 l -3.871,0 0,-3.405 -3.636,0 0,9.364 7.468,0 c 2.282,0 3.133,-1.741 3.133,-3.056" style="fill:#2448a0;fill-opacity:1;fill-rule:nonzero;stroke:none" id="path9390"/>
    </g>
    <g id="g9392" transform="matrix(1.25,0,0,-1.25,-2058.0242,-459.04646)">
      <path d="m 0,0 -2.168,0 0,-2.631 2.245,0 c 1.161,0 1.47,0.85 1.47,1.507 C 1.547,-0.464 1.161,0 0,0 m 4.798,-1.238 c 0,-1.317 -1.046,-2.903 -3.095,-2.903 l -3.871,0 0,-3.405 -3.636,0 0,9.364 7.467,0 c 2.284,0 3.135,-1.741 3.135,-3.056" style="fill:#2448a0;fill-opacity:1;fill-rule:nonzero;stroke:none" id="path9394"/>
    </g>
    <path d="m -2118.055,-437.31197 -0.6363,0 0,-6.455 0.6363,0 0,6.455 z" style="fill:#254aa5;fill-opacity:1;fill-rule:nonzero;stroke:none" id="path9396"/>
    <g id="g9398" transform="matrix(1.25,0,0,-1.25,-2113.2494,-443.76698)">
      <path d="m 0,0 0,-5.164 -0.695,0 -1.576,4.477 -0.011,0 0,-4.477 -0.453,0 0,5.164 0.718,0 1.554,-4.42 0.01,0 0,4.42 L 0,0 z" style="fill:#254aa5;fill-opacity:1;fill-rule:nonzero;stroke:none" id="path9400"/>
    </g>
    <g id="g9402" transform="matrix(1.25,0,0,-1.25,-2111.4623,-439.23385)">
      <path d="m 0,0 0,-0.15 c 0,-0.701 0.341,-0.922 0.669,-0.922 0.403,0 0.712,0.221 0.712,0.836 0,1.145 -1.791,1.016 -1.791,2.567 0,0.916 0.504,1.402 1.173,1.402 0.73,0 1.138,-0.457 1.104,-1.508 l -0.53,0 C 1.343,2.79 1.204,3.161 0.723,3.161 0.42,3.161 0.11,2.961 0.11,2.403 0.11,1.266 1.901,1.431 1.901,-0.208 1.901,-1.294 1.321,-1.644 0.663,-1.644 -0.515,-1.658 -0.515,-0.494 -0.503,0 L 0,0 z" style="fill:#254aa5;fill-opacity:1;fill-rule:nonzero;stroke:none" id="path9404"/>
    </g>
    <g id="g9406" transform="matrix(1.25,0,0,-1.25,-2105.1579,-443.76698)">
      <path d="m 0,0 0,-0.573 -1.05,0 0,-4.591 -0.509,0 0,4.591 -1.051,0 L -2.61,0 0,0 z" style="fill:#254aa5;fill-opacity:1;fill-rule:nonzero;stroke:none" id="path9408"/>
    </g>
    <path d="m -2103.6338,-437.31197 -0.635,0 0,-6.455 0.635,0 0,6.455 z" style="fill:#254aa5;fill-opacity:1;fill-rule:nonzero;stroke:none" id="path9410"/>
    <g id="g9412" transform="matrix(1.25,0,0,-1.25,-2099.4829,-443.76698)">
      <path d="m 0,0 0,-0.573 -1.05,0 0,-4.591 -0.509,0 0,4.591 -1.05,0 0,0.573 L 0,0 z" style="fill:#254aa5;fill-opacity:1;fill-rule:nonzero;stroke:none" id="path9414"/>
    </g>
    <g id="g9416" transform="matrix(1.25,0,0,-1.25,-2098.698,-443.76698)">
      <path d="m 0,0 0.508,0 0,-3.304 c 0,-1.13 0.265,-1.416 0.746,-1.416 C 1.736,-4.72 2,-4.434 2,-3.304 L 2,0 l 0.509,0 0,-3.276 C 2.509,-4.707 2.1,-5.271 1.254,-5.271 0.409,-5.271 0,-4.707 0,-3.276 L 0,0 z" style="fill:#254aa5;fill-opacity:1;fill-rule:nonzero;stroke:none" id="path9418"/>
    </g>
    <g id="g9420" transform="matrix(1.25,0,0,-1.25,-2091.5105,-443.76698)">
      <path d="m 0,0 0,-0.573 -1.05,0 0,-4.591 -0.509,0 0,4.591 -1.049,0 0,0.573 L 0,0 z" style="fill:#254aa5;fill-opacity:1;fill-rule:nonzero;stroke:none" id="path9422"/>
    </g>
    <g id="g9424" transform="matrix(1.25,0,0,-1.25,-2087.758,-438.02721)">
      <path d="m 0,0 0.482,0 c 0.707,0 0.967,0.343 0.967,1.544 l 0,1.044 c 0,1.045 -0.249,1.431 -0.78,1.431 L 0,4.019 0,0 z m -0.508,4.592 1.227,0 C 1.228,4.592 1.592,4.355 1.792,3.805 1.952,3.369 1.968,2.338 1.968,2.174 1.968,1.073 1.891,0.437 1.725,0.092 1.51,-0.351 1.107,-0.572 0.409,-0.572 l -0.917,0 0,5.164 z" style="fill:#254aa5;fill-opacity:1;fill-rule:nonzero;stroke:none" id="path9426"/>
    </g>
    <g id="g9428" transform="matrix(1.25,0,0,-1.25,-2084.0374,-437.31247)">
      <path d="m 0,0 0,5.164 2.056,0 0,-0.573 -1.548,0 0,-1.659 1.437,0 0,-0.572 -1.437,0 0,-1.788 1.581,0 L 2.089,0 0,0 z" style="fill:#254aa5;fill-opacity:1;fill-rule:nonzero;stroke:none" id="path9430"/>
    </g>
    <g id="g9432" transform="matrix(1.25,0,0,-1.25,-2077.4169,-440.86897)">
      <path d="m 0,0 0.558,0 c 0.211,0 0.708,0.072 0.708,0.88 0,0.787 -0.454,0.866 -0.564,0.866 L 0,1.746 0,0 z m -0.509,-2.845 0,5.163 1.183,0 c 0.536,0 1.111,-0.258 1.111,-1.474 0,-1.172 -0.707,-1.415 -1.116,-1.415 l -0.669,0 0,-2.274 -0.509,0 z" style="fill:#254aa5;fill-opacity:1;fill-rule:nonzero;stroke:none" id="path9434"/>
    </g>
    <g id="g9436" transform="matrix(1.25,0,0,-1.25,-2074.1045,-437.31247)">
      <path d="m 0,0 0,5.164 0.509,0 0,-2.232 1.397,0 0,2.232 0.51,0 0,-5.164 -0.51,0 0,2.36 -1.397,0 L 0.509,0 0,0 z" style="fill:#254aa5;fill-opacity:1;fill-rule:nonzero;stroke:none" id="path9438"/>
    </g>
    <g id="g9440" transform="matrix(1.25,0,0,-1.25,-2067.5865,-443.76698)">
      <path d="m 0,0 0.514,0 -1.09,-3.197 0,-1.967 -0.507,0 0,1.967 L -2.156,0 -1.586,0 -0.808,-2.496 0,0 z" style="fill:#254aa5;fill-opacity:1;fill-rule:nonzero;stroke:none" id="path9442"/>
    </g>
    <g id="g9444" transform="matrix(1.25,0,0,-1.25,-2065.6889,-439.23385)">
      <path d="m 0,0 0,-0.15 c 0,-0.701 0.343,-0.922 0.669,-0.922 0.403,0 0.712,0.221 0.712,0.836 0,1.145 -1.79,1.016 -1.79,2.567 0,0.916 0.503,1.402 1.171,1.402 0.73,0 1.14,-0.457 1.106,-1.508 l -0.53,0 C 1.342,2.79 1.205,3.161 0.724,3.161 0.42,3.161 0.11,2.961 0.11,2.403 0.11,1.266 1.902,1.431 1.902,-0.208 1.902,-1.294 1.32,-1.644 0.663,-1.644 -0.514,-1.658 -0.514,-0.494 -0.503,0 L 0,0 z" style="fill:#254aa5;fill-opacity:1;fill-rule:nonzero;stroke:none" id="path9446"/>
    </g>
    <path d="m -2061.4638,-437.31197 -0.6362,0 0,-6.455 0.6362,0 0,6.455 z" style="fill:#254aa5;fill-opacity:1;fill-rule:nonzero;stroke:none" id="path9448"/>
    <g id="g9450" transform="matrix(1.25,0,0,-1.25,-2057.6867,-439.63735)">
      <path d="m 0,0 0,1.744 c 0,1.08 -0.575,1.115 -0.735,1.115 -0.161,0 -0.735,-0.035 -0.735,-1.115 L -1.47,0 c 0,-0.858 0.143,-1.331 0.741,-1.331 C -0.133,-1.331 0,-0.858 0,0 m -1.99,1.723 c 0,1.029 0.408,1.688 1.255,1.688 0.844,0 1.255,-0.659 1.255,-1.688 l 0,-1.696 c 0,-0.37 -0.122,-1.287 -0.349,-1.415 l 0.012,-0.015 c 0.07,0.029 0.265,0.115 0.347,0.115 l 0.398,0 0,-0.572 -1.657,0 c -0.543,0 -1.261,0.043 -1.261,1.887 l 0,1.696 z" style="fill:#254aa5;fill-opacity:1;fill-rule:nonzero;stroke:none" id="path9452"/>
    </g>
    <g id="g9454" transform="matrix(1.25,0,0,-1.25,-2055.764,-443.76698)">
      <path d="m 0,0 0.509,0 0,-3.304 c 0,-1.13 0.265,-1.416 0.746,-1.416 0.481,0 0.746,0.286 0.746,1.416 l 0,3.304 0.509,0 0,-3.276 C 2.51,-4.707 2.1,-5.271 1.255,-5.271 0.409,-5.271 0,-4.707 0,-3.276 L 0,0 z" style="fill:#254aa5;fill-opacity:1;fill-rule:nonzero;stroke:none" id="path9456"/>
    </g>
    <g id="g9458" transform="matrix(1.25,0,0,-1.25,-2051.3744,-437.31247)">
      <path d="m 0,0 0,5.164 2.057,0 0,-0.573 -1.548,0 0,-1.659 1.437,0 0,-0.572 -1.437,0 0,-1.788 1.581,0 L 2.09,0 0,0 z" style="fill:#254aa5;fill-opacity:1;fill-rule:nonzero;stroke:none" id="path9460"/>
    </g>
    <g id="g9462" transform="matrix(1.25,0,0,-1.25,-2118.2653,-428.8371)">
      <path d="m 0,0 0.48,0 c 0.708,0 0.968,0.344 0.968,1.544 l 0,1.045 c 0,1.044 -0.249,1.43 -0.779,1.43 L 0,4.019 0,0 z m -0.509,4.591 1.228,0 C 1.228,4.591 1.592,4.355 1.791,3.805 1.951,3.368 1.968,2.339 1.968,2.174 1.968,1.073 1.891,0.436 1.725,0.094 1.509,-0.35 1.105,-0.572 0.409,-0.572 l -0.918,0 0,5.163 z" style="fill:#254aa5;fill-opacity:1;fill-rule:nonzero;stroke:none" id="path9464"/>
    </g>
    <g id="g9466" transform="matrix(1.25,0,0,-1.25,-2113.9543,-434.57571)">
      <path d="m 0,0 0.51,0 0,-3.304 c 0,-1.129 0.264,-1.415 0.745,-1.415 0.481,0 0.746,0.286 0.746,1.415 l 0,3.304 0.509,0 0,-3.275 C 2.51,-4.705 2.101,-5.27 1.255,-5.27 0.41,-5.27 0,-4.705 0,-3.275 L 0,0 z" style="fill:#254aa5;fill-opacity:1;fill-rule:nonzero;stroke:none" id="path9468"/>
    </g>
    <g id="g9470" transform="matrix(1.25,0,0,-1.25,-2103.8035,-432.85147)">
      <path d="m 0,0 c 0,0.607 -0.193,0.937 -0.707,0.937 -0.161,0 -0.735,-0.036 -0.735,-1.116 l 0,-1.745 c 0,-1.13 0.254,-1.415 0.735,-1.415 0.365,0 0.608,0.128 0.713,0.227 l 0,1.546 -0.735,0 0,0.571 1.243,0 0,-2.509 C 0.188,-3.733 -0.193,-3.89 -0.707,-3.89 c -0.846,0 -1.255,0.565 -1.255,1.994 l 0,1.696 c 0,1.029 0.409,1.687 1.255,1.687 C 0.156,1.487 0.564,1.08 0.531,0 L 0,0 z" style="fill:#254aa5;fill-opacity:1;fill-rule:nonzero;stroke:none" id="path9472"/>
    </g>
    <g id="g9474" transform="matrix(1.25,0,0,-1.25,-2101.212,-428.12247)">
      <path d="m 0,0 0,5.163 0.508,0 0,-4.591 1.465,0 L 1.973,0 0,0 z" style="fill:#254aa5;fill-opacity:1;fill-rule:nonzero;stroke:none" id="path9476"/>
    </g>
    <g id="g9478" transform="matrix(1.25,0,0,-1.25,-2094.9163,-430.44598)">
      <path d="M 0,0 0,1.746 C 0,2.825 -0.575,2.861 -0.736,2.861 -0.895,2.861 -1.47,2.825 -1.47,1.746 L -1.47,0 c 0,-1.129 0.255,-1.415 0.734,-1.415 C -0.254,-1.415 0,-1.129 0,0 m -1.989,0.029 0,1.695 c 0,1.029 0.408,1.688 1.253,1.688 0.846,0 1.256,-0.659 1.256,-1.688 l 0,-1.695 c 0,-1.43 -0.41,-1.995 -1.256,-1.995 -0.845,0 -1.253,0.565 -1.253,1.995" style="fill:#254aa5;fill-opacity:1;fill-rule:nonzero;stroke:none" id="path9480"/>
    </g>
    <g id="g9482" transform="matrix(1.25,0,0,-1.25,-2091.7028,-431.85959)">
      <path d="m 0,0 0.741,0 c 0.398,0.006 0.592,0.321 0.592,0.822 0,0.428 -0.189,0.779 -0.614,0.779 L 0,1.601 0,0 z m 0,-2.418 0.719,0 c 0.541,0 0.735,0.501 0.735,0.88 0,0.822 -0.393,0.965 -0.913,0.965 l -0.541,0 0,-1.845 z m -0.509,-0.572 0,5.163 1.299,0 C 1.343,2.173 1.531,1.93 1.68,1.644 1.818,1.365 1.84,1.058 1.84,0.958 1.84,0.313 1.668,-0.115 1.155,-0.265 l 0,-0.037 c 0.569,-0.084 0.818,-0.529 0.818,-1.236 0,-1.323 -0.745,-1.452 -1.199,-1.452 l -1.283,0 z" style="fill:#254aa5;fill-opacity:1;fill-rule:nonzero;stroke:none" id="path9484"/>
    </g>
    <g id="g9486" transform="matrix(1.25,0,0,-1.25,-2087.4199,-428.12247)">
      <path d="m 0,0 0,5.163 2.057,0 0,-0.572 -1.547,0 0,-1.659 1.436,0 0,-0.572 -1.436,0 0,-1.788 1.579,0 L 2.089,0 0,0 z" style="fill:#254aa5;fill-opacity:1;fill-rule:nonzero;stroke:none" id="path9488"/>
    </g>
    <g id="g9490" transform="matrix(1.25,0,0,-1.25,-2079.7954,-428.8371)">
      <path d="m 0,0 0.48,0 c 0.708,0 0.968,0.344 0.968,1.544 l 0,1.045 c 0,1.044 -0.249,1.43 -0.78,1.43 L 0,4.019 0,0 z m -0.508,4.591 1.227,0 C 1.228,4.591 1.592,4.355 1.792,3.805 1.951,3.368 1.968,2.339 1.968,2.174 1.968,1.073 1.89,0.436 1.725,0.094 1.509,-0.35 1.104,-0.572 0.409,-0.572 l -0.917,0 0,5.163 z" style="fill:#254aa5;fill-opacity:1;fill-rule:nonzero;stroke:none" id="path9492"/>
    </g>
    <g id="g9494" transform="matrix(1.25,0,0,-1.25,-2075.4638,-428.12247)">
      <path d="m 0,0 0,5.163 2.057,0 0,-0.572 -1.548,0 0,-1.659 1.437,0 0,-0.572 -1.437,0 0,-1.788 1.581,0 L 2.09,0 0,0 z" style="fill:#254aa5;fill-opacity:1;fill-rule:nonzero;stroke:none" id="path9496"/>
    </g>
    <g id="g9498" transform="matrix(1.25,0,0,-1.25,-2067.7703,-431.6796)">
      <path d="m 0,0 0.558,0 c 0.21,0 0.708,0.073 0.708,0.879 0,0.788 -0.454,0.866 -0.564,0.866 L 0,1.745 0,0 z m -0.509,-2.846 0,5.163 1.182,0 c 0.537,0 1.111,-0.258 1.111,-1.473 0,-1.173 -0.707,-1.416 -1.115,-1.416 l -0.669,0 0,-2.274 -0.509,0 z" style="fill:#254aa5;fill-opacity:1;fill-rule:nonzero;stroke:none" id="path9500"/>
    </g>
    <g id="g9502" transform="matrix(1.25,0,0,-1.25,-2062.3742,-433.81522)">
      <path d="m 0,0 -0.011,0 -0.624,-2.752 1.277,0 L 0,0 z m -0.31,0.608 0.647,0 1.3,-5.162 -0.57,0 -0.287,1.229 -1.542,0 -0.299,-1.229 -0.514,0 1.265,5.162 z" style="fill:#254aa5;fill-opacity:1;fill-rule:nonzero;stroke:none" id="path9504"/>
    </g>
    <g id="g9506" transform="matrix(1.25,0,0,-1.25,-2058.2835,-431.80535)">
      <path d="m 0,0 0.763,0 c 0.365,0 0.542,0.407 0.542,0.858 0,0.371 -0.144,0.787 -0.536,0.787 L 0,1.645 0,0 z m 0,-0.572 0,-2.374 -0.508,0 0,5.162 1.376,0 c 0.707,0 0.956,-0.643 0.956,-1.287 0,-0.608 -0.26,-1.072 -0.73,-1.179 l 0,-0.015 c 0.46,-0.093 0.625,-0.293 0.653,-1.329 0.006,-0.222 0.061,-1.031 0.138,-1.352 l -0.53,0 c -0.145,0.357 -0.111,1.03 -0.156,1.716 -0.038,0.629 -0.43,0.658 -0.602,0.658 l -0.597,0 z" style="fill:#254aa5;fill-opacity:1;fill-rule:nonzero;stroke:none" id="path9508"/>
    </g>
    <path d="m -2053.5825,-428.12197 -0.6363,0 0,-6.45375 0.6363,0 0,6.45375 z" style="fill:#254aa5;fill-opacity:1;fill-rule:nonzero;stroke:none" id="path9510"/>
    <g id="g9512" transform="matrix(1.25,0,0,-1.25,-2051.1352,-430.04386)">
      <path d="m 0,0 0,-0.15 c 0,-0.701 0.342,-0.923 0.669,-0.923 0.403,0 0.712,0.222 0.712,0.837 0,1.144 -1.79,1.016 -1.79,2.568 0,0.915 0.503,1.401 1.172,1.401 0.73,0 1.138,-0.458 1.105,-1.509 l -0.53,0 C 1.343,2.79 1.205,3.161 0.723,3.161 0.42,3.161 0.11,2.961 0.11,2.403 0.11,1.267 1.901,1.43 1.901,-0.208 1.901,-1.294 1.321,-1.644 0.664,-1.644 -0.514,-1.659 -0.514,-0.493 -0.503,0 L 0,0 z" style="fill:#254aa5;fill-opacity:1;fill-rule:nonzero;stroke:none" id="path9514"/>
    </g>
  </g>
</svg>